<?xml version="1.0" encoding="UTF-8"?>
<svg xmlns="http://www.w3.org/2000/svg" xmlns:xlink="http://www.w3.org/1999/xlink" width="111px" height="135px" viewBox="0 0 42 50" version="1.1">
<defs>
<linearGradient id="linear0" gradientUnits="userSpaceOnUse" x1="26.648937" y1="20.603781" x2="135.665253" y2="114.397667" gradientTransform="matrix(0.22718,0,0,0.225386,-6.054106,-4.643798)">
<stop offset="0" style="stop-color:rgb(35.294118%,62.352941%,83.137255%);stop-opacity:1;"/>
<stop offset="1" style="stop-color:rgb(18.823529%,41.176471%,59.607843%);stop-opacity:1;"/>
</linearGradient>
<linearGradient id="linear1" gradientUnits="userSpaceOnUse" x1="150.961105" y1="192.351761" x2="112.031441" y2="137.272995" gradientTransform="matrix(0.22718,0,0,0.225386,-6.054106,-4.643798)">
<stop offset="0" style="stop-color:rgb(100%,83.137255%,23.137255%);stop-opacity:1;"/>
<stop offset="1" style="stop-color:rgb(100%,90.980392%,45.098039%);stop-opacity:1;"/>
</linearGradient>
<filter id="alpha" filterUnits="objectBoundingBox" x="0%" y="0%" width="100%" height="100%">
  <feColorMatrix type="matrix" in="SourceGraphic" values="0 0 0 0 1 0 0 0 0 1 0 0 0 0 1 0 0 0 1 0"/>
</filter>
<mask id="mask0">
  <g filter="url(#alpha)">
<rect x="0" y="0" width="42" height="50" style="fill:rgb(0%,0%,0%);fill-opacity:0.443137;stroke:none;"/>
  </g>
</mask>
<radialGradient id="radial0" gradientUnits="userSpaceOnUse" cx="61.518883" cy="132.285751" fx="61.518883" fy="132.285751" r="29.036913" gradientTransform="matrix(0.0000000070635,-0.095217,0.425924,0.000000150458,-33.802245,56.532542)">
<stop offset="0" style="stop-color:rgb(72.156863%,72.156863%,72.156863%);stop-opacity:0.498039;"/>
<stop offset="1" style="stop-color:rgb(49.803922%,49.803922%,49.803922%);stop-opacity:0;"/>
</radialGradient>
<clipPath id="clip1">
  <rect x="0" y="0" width="42" height="50"/>
</clipPath>
<g id="surface5" clip-path="url(#clip1)">
<path style=" stroke:none;fill-rule:nonzero;fill:url(#radial0);" d="M 37.050781 50.675781 C 37.050781 49.148438 30.554688 47.910156 22.542969 47.910156 C 14.527344 47.910156 8.03125 49.148438 8.03125 50.675781 C 8.03125 52.203125 14.527344 53.441406 22.542969 53.441406 C 30.554688 53.441406 37.050781 52.203125 37.050781 50.675781 Z M 37.050781 50.675781 "/>
</g>
</defs>
<g id="surface1">
<path style=" stroke:none;fill-rule:nonzero;fill:url(#linear0);" d="M 22.179688 0 C 20.328125 0.0078125 18.558594 0.164062 17.003906 0.433594 C 12.421875 1.230469 11.589844 2.894531 11.589844 5.964844 L 11.589844 10.019531 L 22.417969 10.019531 L 22.417969 11.371094 L 7.527344 11.371094 C 4.378906 11.371094 1.625 13.230469 0.761719 16.765625 C -0.230469 20.820312 -0.277344 23.347656 0.761719 27.578125 C 1.53125 30.730469 3.371094 32.972656 6.515625 32.972656 L 10.238281 32.972656 L 10.238281 28.113281 C 10.238281 24.601562 13.332031 21.503906 17.003906 21.503906 L 27.820312 21.503906 C 30.832031 21.503906 33.234375 19.066406 33.234375 16.097656 L 33.234375 5.964844 C 33.234375 3.082031 30.757812 0.914062 27.820312 0.433594 C 25.960938 0.128906 24.03125 -0.0078125 22.179688 0 Z M 16.324219 3.261719 C 17.441406 3.261719 18.355469 4.175781 18.355469 5.296875 C 18.355469 6.414062 17.441406 7.316406 16.324219 7.316406 C 15.199219 7.316406 14.292969 6.414062 14.292969 5.296875 C 14.292969 4.175781 15.199219 3.261719 16.324219 3.261719 Z M 16.324219 3.261719 "/>
<path style=" stroke:none;fill-rule:nonzero;fill:url(#linear1);" d="M 34.585938 11.371094 L 34.585938 16.097656 C 34.585938 19.757812 31.425781 22.84375 27.820312 22.84375 L 17.003906 22.84375 C 14.042969 22.84375 11.589844 25.335938 11.589844 28.25 L 11.589844 38.378906 C 11.589844 41.265625 14.140625 42.960938 17.003906 43.789062 C 20.433594 44.777344 23.71875 44.957031 27.820312 43.789062 C 30.546875 43.011719 33.234375 41.453125 33.234375 38.378906 L 33.234375 34.324219 L 22.417969 34.324219 L 22.417969 32.972656 L 38.648438 32.972656 C 41.796875 32.972656 42.96875 30.816406 44.0625 27.578125 C 45.191406 24.246094 45.144531 21.042969 44.0625 16.765625 C 43.285156 13.6875 41.800781 11.371094 38.648438 11.371094 Z M 28.5 37.027344 C 29.625 37.027344 30.535156 37.933594 30.535156 39.050781 C 30.535156 40.171875 29.625 41.085938 28.5 41.085938 C 27.382812 41.085938 26.46875 40.171875 26.46875 39.050781 C 26.46875 37.933594 27.382812 37.027344 28.5 37.027344 Z M 28.5 37.027344 "/>
<use xlink:href="#surface5" mask="url(#mask0)"/>
</g>
</svg>
